<mxfile host="app.diagrams.net" modified="2022-11-21T14:49:02.397Z" agent="5.0 (Windows NT 10.0; Win64; x64) AppleWebKit/537.36 (KHTML, like Gecko) Chrome/107.0.0.0 Safari/537.36" etag="YuVFKiDHAkv897kIvwH4" version="20.5.1" type="github">
  <diagram id="C5RBs43oDa-KdzZeNtuy" name="Page-1">
    <mxGraphModel dx="1221" dy="672" grid="1" gridSize="10" guides="1" tooltips="1" connect="1" arrows="1" fold="1" page="1" pageScale="1" pageWidth="827" pageHeight="1169" math="0" shadow="0">
      <root>
        <mxCell id="WIyWlLk6GJQsqaUBKTNV-0" />
        <mxCell id="WIyWlLk6GJQsqaUBKTNV-1" parent="WIyWlLk6GJQsqaUBKTNV-0" />
        <mxCell id="dUaMAZoC3RtBpwjw6t-I-2" value="" style="edgeStyle=orthogonalEdgeStyle;rounded=0;orthogonalLoop=1;jettySize=auto;html=1;" edge="1" parent="WIyWlLk6GJQsqaUBKTNV-1" source="dUaMAZoC3RtBpwjw6t-I-0" target="dUaMAZoC3RtBpwjw6t-I-1">
          <mxGeometry relative="1" as="geometry" />
        </mxCell>
        <mxCell id="dUaMAZoC3RtBpwjw6t-I-0" value="Старт" style="ellipse;whiteSpace=wrap;html=1;" vertex="1" parent="WIyWlLk6GJQsqaUBKTNV-1">
          <mxGeometry x="30" y="30" width="120" height="80" as="geometry" />
        </mxCell>
        <mxCell id="dUaMAZoC3RtBpwjw6t-I-8" value="" style="edgeStyle=orthogonalEdgeStyle;rounded=0;orthogonalLoop=1;jettySize=auto;html=1;" edge="1" parent="WIyWlLk6GJQsqaUBKTNV-1" source="dUaMAZoC3RtBpwjw6t-I-1" target="dUaMAZoC3RtBpwjw6t-I-7">
          <mxGeometry relative="1" as="geometry" />
        </mxCell>
        <mxCell id="dUaMAZoC3RtBpwjw6t-I-1" value="decision_start&lt;br&gt;Проверка ввода" style="shape=parallelogram;perimeter=parallelogramPerimeter;whiteSpace=wrap;html=1;fixedSize=1;" vertex="1" parent="WIyWlLk6GJQsqaUBKTNV-1">
          <mxGeometry x="30" y="150" width="120" height="50" as="geometry" />
        </mxCell>
        <mxCell id="dUaMAZoC3RtBpwjw6t-I-18" style="edgeStyle=orthogonalEdgeStyle;rounded=0;orthogonalLoop=1;jettySize=auto;html=1;exitX=0.5;exitY=1;exitDx=0;exitDy=0;entryX=0;entryY=0.5;entryDx=0;entryDy=0;" edge="1" parent="WIyWlLk6GJQsqaUBKTNV-1" source="dUaMAZoC3RtBpwjw6t-I-3" target="dUaMAZoC3RtBpwjw6t-I-10">
          <mxGeometry relative="1" as="geometry" />
        </mxCell>
        <mxCell id="dUaMAZoC3RtBpwjw6t-I-19" style="edgeStyle=orthogonalEdgeStyle;rounded=0;orthogonalLoop=1;jettySize=auto;html=1;exitX=0.5;exitY=1;exitDx=0;exitDy=0;entryX=0;entryY=0.5;entryDx=0;entryDy=0;" edge="1" parent="WIyWlLk6GJQsqaUBKTNV-1" source="dUaMAZoC3RtBpwjw6t-I-3" target="dUaMAZoC3RtBpwjw6t-I-12">
          <mxGeometry relative="1" as="geometry" />
        </mxCell>
        <mxCell id="dUaMAZoC3RtBpwjw6t-I-20" style="edgeStyle=orthogonalEdgeStyle;rounded=0;orthogonalLoop=1;jettySize=auto;html=1;exitX=0.5;exitY=1;exitDx=0;exitDy=0;entryX=0;entryY=0.5;entryDx=0;entryDy=0;" edge="1" parent="WIyWlLk6GJQsqaUBKTNV-1" source="dUaMAZoC3RtBpwjw6t-I-3" target="dUaMAZoC3RtBpwjw6t-I-5">
          <mxGeometry relative="1" as="geometry" />
        </mxCell>
        <mxCell id="dUaMAZoC3RtBpwjw6t-I-3" value="decision_start" style="rhombus;whiteSpace=wrap;html=1;" vertex="1" parent="WIyWlLk6GJQsqaUBKTNV-1">
          <mxGeometry x="50" y="440" width="80" height="80" as="geometry" />
        </mxCell>
        <mxCell id="dUaMAZoC3RtBpwjw6t-I-30" style="edgeStyle=orthogonalEdgeStyle;rounded=0;orthogonalLoop=1;jettySize=auto;html=1;exitX=1;exitY=0.5;exitDx=0;exitDy=0;" edge="1" parent="WIyWlLk6GJQsqaUBKTNV-1" source="dUaMAZoC3RtBpwjw6t-I-5">
          <mxGeometry relative="1" as="geometry">
            <mxPoint x="250" y="740" as="targetPoint" />
          </mxGeometry>
        </mxCell>
        <mxCell id="dUaMAZoC3RtBpwjw6t-I-5" value="array1 = work()" style="whiteSpace=wrap;html=1;" vertex="1" parent="WIyWlLk6GJQsqaUBKTNV-1">
          <mxGeometry x="110" y="570" width="120" height="60" as="geometry" />
        </mxCell>
        <mxCell id="dUaMAZoC3RtBpwjw6t-I-32" value="" style="edgeStyle=orthogonalEdgeStyle;rounded=0;orthogonalLoop=1;jettySize=auto;html=1;" edge="1" parent="WIyWlLk6GJQsqaUBKTNV-1" source="dUaMAZoC3RtBpwjw6t-I-7" target="dUaMAZoC3RtBpwjw6t-I-13">
          <mxGeometry relative="1" as="geometry" />
        </mxCell>
        <mxCell id="dUaMAZoC3RtBpwjw6t-I-7" value="length1, length2&lt;br&gt;*array1, *array2, *res_arr" style="rounded=0;whiteSpace=wrap;html=1;" vertex="1" parent="WIyWlLk6GJQsqaUBKTNV-1">
          <mxGeometry x="30" y="240" width="120" height="60" as="geometry" />
        </mxCell>
        <mxCell id="dUaMAZoC3RtBpwjw6t-I-29" style="edgeStyle=orthogonalEdgeStyle;rounded=0;orthogonalLoop=1;jettySize=auto;html=1;exitX=1;exitY=0.5;exitDx=0;exitDy=0;" edge="1" parent="WIyWlLk6GJQsqaUBKTNV-1" source="dUaMAZoC3RtBpwjw6t-I-10">
          <mxGeometry relative="1" as="geometry">
            <mxPoint x="250" y="830" as="targetPoint" />
          </mxGeometry>
        </mxCell>
        <mxCell id="dUaMAZoC3RtBpwjw6t-I-10" value="array2 = work()" style="rounded=0;whiteSpace=wrap;html=1;" vertex="1" parent="WIyWlLk6GJQsqaUBKTNV-1">
          <mxGeometry x="110" y="680" width="120" height="60" as="geometry" />
        </mxCell>
        <mxCell id="dUaMAZoC3RtBpwjw6t-I-24" style="edgeStyle=orthogonalEdgeStyle;rounded=0;orthogonalLoop=1;jettySize=auto;html=1;exitX=0.5;exitY=1;exitDx=0;exitDy=0;entryX=0;entryY=0.5;entryDx=0;entryDy=0;" edge="1" parent="WIyWlLk6GJQsqaUBKTNV-1" source="dUaMAZoC3RtBpwjw6t-I-12" target="dUaMAZoC3RtBpwjw6t-I-3">
          <mxGeometry relative="1" as="geometry" />
        </mxCell>
        <mxCell id="dUaMAZoC3RtBpwjw6t-I-27" style="edgeStyle=orthogonalEdgeStyle;rounded=0;orthogonalLoop=1;jettySize=auto;html=1;exitX=1;exitY=0.5;exitDx=0;exitDy=0;" edge="1" parent="WIyWlLk6GJQsqaUBKTNV-1" source="dUaMAZoC3RtBpwjw6t-I-12">
          <mxGeometry relative="1" as="geometry">
            <mxPoint x="170" y="870" as="targetPoint" />
          </mxGeometry>
        </mxCell>
        <mxCell id="dUaMAZoC3RtBpwjw6t-I-12" value="res_arr = do_task()" style="rounded=0;whiteSpace=wrap;html=1;" vertex="1" parent="WIyWlLk6GJQsqaUBKTNV-1">
          <mxGeometry x="110" y="790" width="120" height="60" as="geometry" />
        </mxCell>
        <mxCell id="dUaMAZoC3RtBpwjw6t-I-28" style="edgeStyle=orthogonalEdgeStyle;rounded=0;orthogonalLoop=1;jettySize=auto;html=1;exitX=1;exitY=0.5;exitDx=0;exitDy=0;" edge="1" parent="WIyWlLk6GJQsqaUBKTNV-1" source="dUaMAZoC3RtBpwjw6t-I-13" target="dUaMAZoC3RtBpwjw6t-I-23">
          <mxGeometry relative="1" as="geometry" />
        </mxCell>
        <mxCell id="dUaMAZoC3RtBpwjw6t-I-33" value="" style="edgeStyle=orthogonalEdgeStyle;rounded=0;orthogonalLoop=1;jettySize=auto;html=1;" edge="1" parent="WIyWlLk6GJQsqaUBKTNV-1" source="dUaMAZoC3RtBpwjw6t-I-13" target="dUaMAZoC3RtBpwjw6t-I-3">
          <mxGeometry relative="1" as="geometry" />
        </mxCell>
        <mxCell id="dUaMAZoC3RtBpwjw6t-I-13" value="decision == 4" style="rhombus;whiteSpace=wrap;html=1;" vertex="1" parent="WIyWlLk6GJQsqaUBKTNV-1">
          <mxGeometry x="50" y="330" width="80" height="80" as="geometry" />
        </mxCell>
        <mxCell id="dUaMAZoC3RtBpwjw6t-I-23" value="End" style="ellipse;whiteSpace=wrap;html=1;" vertex="1" parent="WIyWlLk6GJQsqaUBKTNV-1">
          <mxGeometry x="300" y="790" width="120" height="80" as="geometry" />
        </mxCell>
      </root>
    </mxGraphModel>
  </diagram>
</mxfile>
